<?xml version="1.0" standalone="no"?>
<!DOCTYPE svg PUBLIC "-//W3C//DTD SVG 20010904//EN"
 "http://www.w3.org/TR/2001/REC-SVG-20010904/DTD/svg10.dtd">
<svg version="1.0" xmlns="http://www.w3.org/2000/svg"
 width="285.000000pt" height="285.000000pt" viewBox="0 0 285.000000 285.000000"
 preserveAspectRatio="xMidYMid meet">
<metadata>
Created by potrace 1.14, written by Peter Selinger 2001-2017
</metadata>
<g transform="translate(0.000000,285.000000) scale(0.100000,-0.100000)"
fill="#000000" stroke="none">
<path d="M1251 2839 c-25 -5 -63 -11 -85 -15 -268 -39 -569 -201 -776 -419
-187 -195 -334 -489 -366 -728 -3 -23 -10 -62 -14 -85 -11 -62 -5 -325 9 -402
32 -167 77 -298 153 -440 43 -81 100 -172 118 -190 3 -3 18 -21 34 -40 128
-157 282 -278 484 -379 104 -52 266 -105 360 -117 20 -2 49 -7 66 -10 50 -10
289 -12 352 -3 33 5 73 11 89 13 165 25 377 113 557 232 88 59 276 244 340
334 58 83 140 235 173 324 32 84 71 232 80 306 11 77 13 337 4 380 -4 19 -10
56 -13 83 -4 26 -11 58 -16 72 -5 14 -8 25 -5 25 9 0 -68 205 -104 280 -47 93
-134 230 -181 280 -108 117 -130 138 -220 209 -172 136 -424 249 -615 276 -22
3 -51 8 -65 11 -40 10 -311 11 -359 3z"/>
</g>
</svg>
